<?xml version="1.0" encoding="UTF-8" standalone="no"?>
<!DOCTYPE svg PUBLIC "-//W3C//DTD SVG 1.1//EN" "http://www.w3.org/Graphics/SVG/1.1/DTD/svg11.dtd">
<svg width="100%" height="100%" viewBox="0 0 10217 2496" version="1.1" xmlns="http://www.w3.org/2000/svg" xmlns:xlink="http://www.w3.org/1999/xlink" xml:space="preserve" xmlns:serif="http://www.serif.com/" style="fill-rule:evenodd;clip-rule:evenodd;stroke-linejoin:round;stroke-miterlimit:2;">
    <g transform="matrix(1,0,0,1,-100440,-695.431)">
        <g transform="matrix(8.33333,0,0,8.33333,100219,0)">
            <g transform="matrix(1,0,0,1,26.5,83.5953)">
                <path d="M0,299.373L0,0L81.681,0L81.681,31.222L54.455,31.222C33.93,31.222 30.159,42.77 30.159,51.323L30.159,105.21C30.159,116.755 33.93,129.158 50.684,129.158L70.372,129.158L70.372,160.379L50.684,160.379C33.93,160.379 30.159,173.208 30.159,184.756L30.159,248.053C30.159,256.606 33.93,268.151 54.455,268.151L81.681,268.151L81.681,299.373L0,299.373Z" style="fill:rgb(55,50,50);fill-rule:nonzero;"/>
            </g>
            <g transform="matrix(1,0,0,1,164.453,83.5953)">
                <path d="M0,299.373L0,0L70.309,0C119.274,0 149.406,35.071 149.406,82.541C149.406,130.015 118.439,164.656 70.309,164.656L53.149,164.656C38.92,164.656 30.132,175.776 30.132,187.751L30.132,299.373L0,299.373ZM68.217,133.864C98.768,133.864 119.274,110.768 119.274,82.541C119.274,52.604 97.514,30.795 67.798,30.795L50.219,30.795C35.992,30.795 30.132,40.202 30.132,50.039L30.132,118.04C30.132,125.311 35.992,133.864 51.476,133.864L68.217,133.864Z" style="fill:rgb(55,50,50);fill-rule:nonzero;"/>
            </g>
            <g transform="matrix(1,0,0,1,455.548,382.97)">
                <path d="M0,-299.373L30.554,-299.373L30.554,0L0,0L0,-114.617C0,-126.165 -3.768,-138.995 -20.09,-138.995L-56.085,-138.995C-72.829,-138.995 -76.594,-126.165 -76.594,-114.617L-76.594,0L-106.729,0L-106.729,-299.373L-76.594,-299.373L-76.594,-195.02C-76.594,-183.475 -72.829,-170.216 -56.085,-170.216L-20.09,-170.216C-3.768,-170.216 0,-183.475 0,-195.02L0,-299.373Z" style="fill:rgb(55,50,50);fill-rule:nonzero;"/>
            </g>
            <g transform="matrix(1,0,0,1,630.41,223.446)">
                <path d="M0,19.673L82.049,159.521L44.794,159.521L-26.791,35.924C-31.397,27.799 -38.096,23.523 -47.305,23.523C-59.445,23.523 -70.328,33.786 -70.328,46.615L-70.328,159.521L-100.468,159.521L-100.468,-139.848L-28.886,-139.848C20.096,-139.848 50.235,-103.923 50.235,-57.735C50.235,-22.666 27.21,8.555 0,19.673M-32.232,-6.842C-3.768,-6.842 19.677,-28.654 19.677,-57.735C19.677,-86.818 -3.768,-108.63 -32.651,-108.63L-50.235,-108.63C-64.468,-108.63 -70.328,-99.647 -70.328,-89.81L-70.328,-23.094C-70.328,-16.252 -64.468,-6.842 -48.979,-6.842L-32.232,-6.842Z" style="fill:rgb(55,50,50);fill-rule:nonzero;"/>
            </g>
            <g transform="matrix(1,0,0,1,747.332,83.5953)">
                <path d="M0,299.373L0,0L81.681,0L81.681,31.222L54.455,31.222C33.93,31.222 30.158,42.77 30.158,51.323L30.158,105.21C30.158,116.755 33.93,129.158 50.684,129.158L70.371,129.158L70.371,160.379L50.684,160.379C33.93,160.379 30.158,173.208 30.158,184.756L30.158,248.053C30.158,256.606 33.93,268.151 54.455,268.151L81.681,268.151L81.681,299.373L0,299.373Z" style="fill:rgb(55,50,50);fill-rule:nonzero;"/>
            </g>
            <g transform="matrix(1,0,0,1,954.712,243.906)">
                <path d="M0,-21.392C-6.274,-29.523 -13.803,-30.804 -19.238,-30.804C-30.948,-30.804 -39.314,-20.965 -39.314,-6.844L-39.314,139.062L-69.428,139.062L-69.428,-160.454L94.105,53.059C102.888,64.612 108.742,66.75 114.182,66.75C119.617,66.75 125.473,64.612 134.255,53.059L297.788,-160.454L297.788,139.062L267.675,139.062L267.675,-6.844C267.675,-20.965 259.309,-30.804 247.599,-30.804C242.162,-30.804 234.634,-29.523 228.36,-21.392L114.182,130.077L0,-21.392Z" style="fill:rgb(55,50,50);fill-rule:nonzero;"/>
            </g>
        </g>
    </g>
</svg>
