<?xml version="1.0" encoding="UTF-8"?>
<svg version="1.1" xmlns="http://www.w3.org/2000/svg" width="1121" height="1128">
<path d="M0 0 C1.20695023 -0.01561478 2.41390045 -0.03122955 3.65742493 -0.0473175 C4.97338654 -0.04393372 6.28934814 -0.04054993 7.64518738 -0.0370636 C9.05165867 -0.04740067 10.45811865 -0.0593907 11.86456299 -0.07290649 C15.67882098 -0.10393078 19.492701 -0.10923123 23.30707002 -0.10797477 C26.49527858 -0.10880603 29.68340548 -0.12105482 32.87158889 -0.13292438 C40.39675985 -0.16029279 47.92173498 -0.16562907 55.44694519 -0.15815735 C63.19926367 -0.15092019 70.95067189 -0.18431159 78.70279294 -0.23721474 C85.36713307 -0.28104612 92.0311797 -0.29770688 98.69566172 -0.29317886 C102.6722448 -0.29086039 106.64809268 -0.29910076 110.62453651 -0.3342495 C114.36703842 -0.36629499 118.10803815 -0.36432871 121.85056114 -0.33680534 C123.86960566 -0.33025475 125.88867109 -0.35815007 127.90751648 -0.38725281 C129.73063103 -0.36414787 129.73063103 -0.36414787 131.59057617 -0.34057617 C132.63861325 -0.34183345 133.68665033 -0.34309072 134.76644611 -0.3443861 C139.68173559 0.98776884 142.40471983 4.00456868 145.98576355 7.52812195 C147.39431393 8.89878591 147.39431393 8.89878591 148.83131987 10.29714006 C152.32408323 13.71641201 155.7788442 17.17325759 159.2346344 20.62982178 C160.57634394 21.9682277 161.91826473 23.30642188 163.26037753 24.64442343 C166.93480518 28.30888117 170.60612315 31.97644043 174.2768991 35.64455569 C178.24100899 39.60474809 182.20794528 43.56210772 186.17445374 47.51989746 C195.74079237 57.06652197 205.30232711 66.61795088 214.86326641 76.16998234 C219.36649824 80.66882674 223.8702187 85.16718193 228.37387466 89.66560173 C243.34204215 104.61676907 258.3089705 119.56917511 273.27225304 134.52523136 C274.23863828 135.49114186 275.2050241 136.45705178 276.17141048 137.42296114 C276.89024353 138.14143963 276.89024353 138.14143963 277.62359847 138.87443284 C280.05144265 141.30107586 282.47929399 143.72771173 284.90715027 146.15434265 C285.38895469 146.63590693 285.87075912 147.1174712 286.36716367 147.61362833 C302.00762828 163.24619039 317.6558518 178.87095571 333.3085906 194.49122704 C349.86540863 211.01376494 366.41493524 227.5435657 382.95627177 244.08160585 C391.9709824 253.09414875 400.98897541 262.10335357 410.01534653 271.10421944 C417.69568725 278.76290768 425.36923285 286.42832179 433.03387873 294.10271842 C436.94600142 298.01940035 440.86132993 301.93273339 444.78538513 305.83746338 C448.37497623 309.40952792 451.9552763 312.99063491 455.52829678 316.57927232 C456.82471998 317.87808748 458.12455798 319.17350459 459.42806415 320.46521104 C461.19540335 322.21753405 462.95003834 323.98166868 464.70198631 325.74936008 C465.21425343 326.25140499 465.72652054 326.7534499 466.25431091 327.27070829 C471.01423018 332.12488756 472.23274329 336.75086957 472.24645996 343.40359497 C472.25354477 344.55446594 472.26062958 345.70533691 472.26792908 346.89108276 C472.26545166 348.13956497 472.26297424 349.38804718 472.26042175 350.67436218 C472.26477296 352.01362898 472.26995747 353.35289329 472.27590942 354.69215393 C472.28926632 358.31821426 472.28988183 361.94417015 472.28734612 365.57025027 C472.28627423 368.60200047 472.29116533 371.63372973 472.29595155 374.66547543 C472.30703514 381.81998366 472.30749051 388.97443937 472.30143738 396.12895203 C472.29539689 403.49986353 472.30771306 410.87058418 472.32900745 418.24146312 C472.3466424 424.57965764 472.35262185 430.9177915 472.3493697 437.25600964 C472.34755982 441.03724648 472.35016349 444.81834715 472.36408424 448.59956169 C472.37668903 452.15618512 472.37469372 455.71251167 472.36167336 459.26913071 C472.35819254 461.18930592 472.36946583 463.10949031 472.38124084 465.02963257 C472.33438738 472.73593358 472.23666679 478.19085683 466.64285278 483.93327332 C460.9955279 486.39605937 455.56863942 486.0840871 449.47233582 486.04570007 C448.09365603 486.05112493 446.71498204 486.05824964 445.33631897 486.06694031 C441.60270696 486.08513546 437.86953836 486.07812174 434.13591886 486.06542397 C430.2220806 486.05527437 426.3082795 486.06469526 422.3944397 486.07096863 C415.82154041 486.07824022 409.24882105 486.06867116 402.6759491 486.04960632 C395.08683894 486.02784744 387.49815881 486.03488353 379.90905911 486.05691195 C373.38400464 486.07509079 366.8590793 486.0776119 360.33400768 486.06715727 C356.44096931 486.06093477 352.54813275 486.06005206 348.6551075 486.07330322 C344.9933215 486.08489715 341.33208724 486.07677228 337.67036057 486.0537262 C335.69294738 486.04595308 333.71548729 486.05776541 331.73809814 486.07023621 C330.55075073 486.05895691 329.36340332 486.04767761 328.14007568 486.03605652 C327.11453866 486.03454842 326.08900164 486.03304031 325.03238773 486.03148651 C318.38126777 484.9325856 313.64160607 480.62580452 309.04154587 475.964221 C308.48395793 475.41129298 307.92636998 474.85836495 307.35188544 474.28868154 C305.49008954 472.43881208 303.63912225 470.57848166 301.78794861 468.71798706 C300.43999226 467.37420462 299.09138484 466.03107503 297.74218392 464.68854219 C294.04010014 461.00092377 290.34743425 457.3039989 286.65626669 453.60545814 C282.67256251 449.61702742 278.68025715 445.63722216 274.68907166 441.65628052 C266.87328502 433.85769644 259.06570852 426.05094246 251.26113865 418.24113461 C244.91893632 411.89489256 238.57400047 405.55139593 232.22710419 399.2098484 C230.87267444 397.85654129 230.87267444 397.85654129 229.49088247 396.47589463 C227.65661184 394.64315545 225.82233775 392.81041972 223.98806027 390.9776874 C211.67182478 378.67128149 199.35842697 366.36204564 187.05091476 354.04691601 C186.32915275 353.32470823 186.32915275 353.32470823 185.59280968 352.5879104 C181.68539077 348.67804257 177.77805322 344.76809343 173.87072169 340.85813827 C158.62570123 325.60301287 143.37147421 310.35714908 128.10978699 295.11869812 C110.9614818 277.99645944 93.81982819 260.86761219 76.68808007 243.72880346 C67.61745742 234.65468418 58.54397614 225.58346874 49.46286774 216.51984215 C41.73364728 208.80531652 34.01146377 201.08383099 26.29832336 193.35322686 C22.36175259 189.40812197 18.42201684 185.46631987 14.47355652 181.53311157 C10.86041092 177.93375055 7.25659625 174.32531529 3.66005209 170.70936791 C2.35617161 169.40170802 1.0488929 168.0974261 -0.26206544 166.79686203 C-2.04188333 165.03015803 -3.80895817 163.2516043 -5.57338333 161.46954632 C-6.08651797 160.96606219 -6.59965261 160.46257806 -7.12833679 159.94383684 C-12.12715063 154.8417335 -14.3870872 149.67362187 -14.39518738 142.48770142 C-14.40364685 141.32559647 -14.41210632 140.16349152 -14.42082214 138.96617126 C-14.41474945 137.71036255 -14.40867676 136.45455383 -14.40242004 135.16069031 C-14.4064901 133.80979998 -14.41183441 132.45891298 -14.41835022 131.10803223 C-14.43197691 127.4551841 -14.42674492 123.80259138 -14.41721296 120.14973903 C-14.40959372 116.31952547 -14.4166681 112.48933311 -14.42137146 108.65911865 C-14.42682178 102.22926423 -14.41965577 95.79951336 -14.40534973 89.36967468 C-14.38901761 81.94361294 -14.39431862 74.51779824 -14.41082895 67.09174246 C-14.42445621 60.7059763 -14.42635764 54.32028438 -14.41851294 47.93450838 C-14.41384412 44.12482534 -14.41318987 40.31525832 -14.42312241 36.50558281 C-14.43180818 32.92430909 -14.42574113 29.34335308 -14.40843964 25.76211357 C-14.40260131 23.82626147 -14.41147611 21.89038241 -14.42082214 19.95454407 C-14.34114254 9.03526013 -14.34114254 9.03526013 -11.01423645 4.52812195 C-7.32040718 1.02835978 -5.0719461 0.02618347 0 0 Z " fill="#EF7E21" transform="translate(631.0142364501953,626.4718780517578)"/>
<path d="M0 0 C1.17755859 -0.00845947 2.35511719 -0.01691895 3.56835938 -0.02563477 C5.48551758 -0.01652573 5.48551758 -0.01652573 7.44140625 -0.00723267 C8.81185321 -0.01130131 10.18229688 -0.01664483 11.55273438 -0.02316284 C15.26348964 -0.03680759 18.97399392 -0.03154967 22.68475342 -0.02202559 C26.57369651 -0.0144142 30.46261854 -0.0214787 34.3515625 -0.02618408 C40.88154954 -0.03163734 47.41143469 -0.02446135 53.94140625 -0.01016235 C61.48389349 0.00616338 69.02613743 0.00087457 76.56861877 -0.01564157 C83.05202818 -0.02926873 89.53536447 -0.0311701 96.01878357 -0.02332556 C99.88772569 -0.01865579 103.75655356 -0.01800497 107.62548828 -0.02793503 C111.26338046 -0.03662039 114.90095986 -0.03055446 118.53881836 -0.01325226 C120.50569228 -0.00741292 122.47259274 -0.01628958 124.43945312 -0.02563477 C126.20579102 -0.01294556 126.20579102 -0.01294556 128.0078125 0 C129.53643921 0.00169662 129.53643921 0.00169662 131.09594727 0.00342751 C135.43062995 0.56617418 138.82167962 2.11719143 141.81640625 5.31845093 C144.01309803 9.1337577 144.13137939 12.66704652 144.14434814 17.01591492 C144.15005829 18.16403656 144.15576843 19.3121582 144.16165161 20.49507141 C144.16276947 21.75074417 144.16388733 23.00641693 144.16503906 24.30014038 C144.16966964 25.63911068 144.17469462 26.97807966 144.18008423 28.31704712 C144.19318697 31.95146138 144.199649 35.58585719 144.20409489 39.22029138 C144.20702898 41.49247182 144.21113442 43.76464726 144.21559906 46.03682518 C144.22926824 53.15045469 144.2389378 60.26407272 144.24280095 67.37771446 C144.24728077 75.5810804 144.26482747 83.78427964 144.29380155 91.9875949 C144.31543749 98.3342327 144.32550625 104.68082367 144.32684207 111.02749795 C144.32788871 114.81548393 144.33376633 118.60331309 144.35166168 122.39126015 C144.36817564 125.95604756 144.37028193 129.52056082 144.36152267 133.08537292 C144.36038881 135.01035052 144.37408039 136.93531916 144.38827515 138.86024475 C144.37992142 140.59511642 144.37992142 140.59511642 144.37139893 142.36503601 C144.37286549 143.3636733 144.37433205 144.36231058 144.37584305 145.3912096 C143.5226061 152.24978821 140.32781125 156.64700598 135.50223446 161.37760735 C134.94389718 161.9408596 134.38555989 162.50411186 133.8103033 163.08443236 C131.93839406 164.96792467 130.0525742 166.83682741 128.16648865 168.70611572 C126.80741241 170.06765268 125.44921404 171.43006638 124.09181935 172.79327977 C120.36029757 176.53568972 116.61640621 180.26550719 112.87038386 183.99339485 C108.8324654 188.01610485 104.80609311 192.05034236 100.77828979 196.08317566 C92.88741436 203.98027973 84.98596893 211.86672625 77.08100992 219.74972992 C67.88228912 228.92378113 58.69444403 238.10869195 49.50715102 247.29418506 C33.12061224 263.67684647 16.72481073 280.05020281 0.32348633 296.4180603 C-15.60568169 312.31474021 -31.5292193 328.21702993 -47.44604492 344.12606812 C-47.93662861 344.61640876 -48.4272123 345.10674941 -48.93266216 345.61194887 C-51.40356857 348.08163322 -53.8744656 350.55132696 -56.3453592 353.02102412 C-57.07670796 353.75201846 -57.07670796 353.75201846 -57.82283143 354.49778038 C-58.80596862 355.48044339 -59.7891038 356.46310841 -60.77223697 357.44577545 C-76.41418474 373.08025564 -92.06031029 388.71055388 -107.70747425 404.33981355 C-112.29101943 408.91811752 -116.87441041 413.49657562 -121.45742917 418.07540655 C-131.09498009 427.7040484 -140.73394528 437.33126594 -150.3774919 446.95390324 C-154.36673313 450.93452773 -158.35520016 454.91591945 -162.34154701 458.89944267 C-165.98531652 462.54055547 -169.63137747 466.17935666 -173.27935158 469.81625678 C-174.60384392 471.13752949 -175.92748668 472.45965447 -177.25022633 473.78268181 C-179.03795878 475.57053849 -180.82868944 477.35533515 -182.6202631 479.13934135 C-183.14198118 479.66254306 -183.66369926 480.18574476 -184.20122698 480.72480106 C-188.23019448 484.72603239 -190.0151643 485.50469915 -195.65629578 485.5415802 C-196.86056717 485.55162582 -198.06483856 485.56167145 -199.30560303 485.57202148 C-200.64733824 485.57805185 -201.98907412 485.58393683 -203.33081055 485.58969116 C-204.73845148 485.59922803 -206.14609005 485.60911911 -207.5537262 485.61933899 C-212.18422659 485.65074833 -216.81474507 485.67099584 -221.4453125 485.68954468 C-222.23311356 485.692842 -223.02091462 485.69613932 -223.83258843 485.69953656 C-231.26286815 485.73032231 -238.69315189 485.75702993 -246.12347698 485.77395535 C-255.62655726 485.79585579 -265.12907204 485.83780822 -274.63192624 485.90739292 C-281.31397079 485.95465927 -287.99586294 485.97889252 -294.67806941 485.98615223 C-298.66861964 485.99110532 -302.65853283 486.00615166 -306.64890099 486.04589653 C-310.40592415 486.08282297 -314.16194811 486.0911538 -317.91911888 486.0778904 C-319.9491606 486.07796986 -321.97913355 486.10778266 -324.00894165 486.13858032 C-330.62562295 486.08593915 -335.02036185 485.82475108 -339.85873127 481.05957127 C-342.25941714 477.51642631 -342.12418014 473.88187524 -342.13653564 469.70802307 C-342.14224579 468.55148727 -342.14795593 467.39495148 -342.15383911 466.20336914 C-342.15495697 464.93834564 -342.15607483 463.67332214 -342.15722656 462.3699646 C-342.16185709 461.02114222 -342.16688207 459.67232115 -342.17227173 458.32350159 C-342.1853749 454.66222867 -342.19183658 451.00097408 -342.19628239 447.33968139 C-342.1992164 445.05074999 -342.20332183 442.76182356 -342.20778656 440.47289467 C-342.22145585 433.30693943 -342.23112535 426.14099559 -342.23498845 418.97502822 C-342.23946831 410.71110226 -342.25701517 402.44734178 -342.28598905 394.18346614 C-342.30762441 387.79011962 -342.31769372 381.39681959 -342.31902957 375.00343686 C-342.32007625 371.18750568 -342.32595474 367.37173018 -342.34384918 363.55583763 C-342.36036213 359.96478599 -342.36246991 356.37400652 -342.35371017 352.78293037 C-342.3525762 350.84363955 -342.36626855 348.90435762 -342.38046265 346.96511841 C-342.37489349 345.80012314 -342.36932434 344.63512787 -342.36358643 343.43482971 C-342.36505299 342.42881808 -342.36651955 341.42280645 -342.36803055 340.38630962 C-341.52127291 333.54425891 -338.34908653 329.14320062 -333.53682995 324.42111588 C-332.9830678 323.86183956 -332.42930565 323.30256324 -331.85876283 322.72633916 C-330.00237399 320.85636462 -328.1320845 319.00095882 -326.26152039 317.14517212 C-324.9135476 315.79330617 -323.56644953 314.44056754 -322.2201522 313.08703303 C-318.51917067 309.37128143 -314.80580699 305.66812395 -311.09029353 301.96691108 C-307.08504503 297.97275944 -303.0913227 293.9671117 -299.09613037 289.96290588 C-291.2682674 282.12109994 -283.42968595 274.29009299 -275.58733138 266.46278247 C-266.45824152 257.35054009 -257.33918348 248.22828602 -248.22038744 239.10574445 C-231.46033778 222.3396366 -214.68938932 205.58447766 -197.91358849 188.83413314 C-182.59834111 173.54200271 -167.29198305 158.24103019 -151.9934082 142.93222046 C-148.07562768 139.01183794 -144.15783867 135.09146392 -140.23996258 131.17117691 C-139.75763018 130.68854706 -139.27529777 130.20591721 -138.77834924 129.70866221 C-125.99510162 116.91780054 -113.20481495 104.13398352 -100.41239005 91.35230041 C-98.57894323 89.52037945 -96.74549916 87.68845574 -94.91205788 85.85652924 C-94.00992306 84.95515223 -93.10778823 84.05377522 -92.17831599 83.12508376 C-85.81555707 76.76707119 -79.45610538 70.40576206 -73.09784508 64.04325104 C-65.3515104 56.29199419 -57.59975912 48.54620284 -49.84104069 40.80734095 C-45.88116164 36.85734624 -41.92372184 32.90498679 -37.97271156 28.94611931 C-34.35766618 25.32403197 -30.73579747 21.70891852 -27.1082959 18.09930727 C-25.7954466 16.79051206 -24.48513024 15.47917025 -23.17758425 14.16507676 C-21.40283052 12.38219662 -19.6191385 10.60876498 -17.83288097 8.83742142 C-17.32487964 8.32268243 -16.8168783 7.80794345 -16.29348299 7.27760631 C-11.36761366 2.43120263 -6.92700879 0.00768825 0 0 Z " fill="#F29122" transform="translate(958.99609375,8.619049072265625)"/>
<path d="M0 0 C1.80224533 -0.01062721 1.80224533 -0.01062721 3.64089966 -0.02146912 C4.95581894 -0.0189917 6.27073822 -0.01651428 7.62550354 -0.01396179 C9.0268328 -0.01830987 10.42815968 -0.02349333 11.82948303 -0.02944946 C15.63320638 -0.04284042 19.43683037 -0.04341804 23.24057269 -0.04088616 C26.41655975 -0.03981653 29.5925267 -0.04469962 32.76850945 -0.04949158 C40.26138345 -0.06058707 47.75420733 -0.06102393 55.24708557 -0.05497742 C62.97585514 -0.04893644 70.70444271 -0.06125162 78.43318123 -0.08254749 C85.07023957 -0.10016259 91.70723998 -0.106165 98.34432083 -0.10290974 C102.30772701 -0.10109661 106.27100335 -0.10373598 110.23438835 -0.11762428 C113.96169603 -0.13019662 117.68871995 -0.12826436 121.41602325 -0.11521339 C123.43440998 -0.11171894 125.45280535 -0.12302992 127.47116089 -0.13478088 C128.6754776 -0.12776657 129.87979431 -0.12075226 131.12060547 -0.11352539 C132.68769587 -0.113777 132.68769587 -0.113777 134.28644466 -0.1140337 C137.6926163 0.33582096 139.44067551 1.11214664 142.12379456 3.26069641 C144.71013656 7.32932478 145.50005767 10.4679652 145.51147461 15.25006104 C145.52633156 17.01423119 145.52633156 17.01423119 145.54148865 18.81404114 C145.536987 20.09057556 145.53248535 21.36710999 145.52784729 22.68232727 C145.53355455 24.05115312 145.54052019 25.41997421 145.54864502 26.78878784 C145.56655254 30.49546484 145.56541264 34.20190479 145.55970263 37.90861201 C145.55660725 41.00747485 145.56270712 44.10629238 145.56874138 47.20514876 C145.58277711 54.5178926 145.58123331 61.83051959 145.56983948 69.14326477 C145.55835917 76.67783082 145.5724344 84.21204089 145.59923595 91.74656004 C145.62141439 98.22489387 145.62802552 104.70311614 145.62215954 111.18148524 C145.61879386 115.04659303 145.62117895 118.91147265 145.63841057 122.77654839 C145.65391204 126.41204809 145.64988936 130.04702168 145.63110542 133.68250084 C145.62568055 135.64561666 145.63990931 137.60875628 145.65480042 139.57182312 C145.64496628 140.75075638 145.63513214 141.92968964 145.625 143.14434814 C145.62479072 144.16251082 145.62458143 145.1806735 145.62436581 146.2296896 C144.52559234 152.88286803 140.20164308 157.62425134 135.53868961 162.22332478 C134.98347402 162.78290069 134.42825843 163.3424766 133.85621813 163.91900936 C131.99858959 165.7875644 130.13049373 167.6452798 128.26223755 169.50320435 C126.91290327 170.85599619 125.56422352 172.20944115 124.21614212 173.56348151 C120.5132547 177.27889462 116.80106565 180.98489034 113.08726966 184.68939531 C109.08250293 188.68737853 105.08637331 192.69397887 101.08912659 196.69947815 C93.25903699 204.54291394 85.42085065 212.37820991 77.57974023 220.21062658 C71.20899794 226.57459721 64.84118559 232.94148572 58.47546196 239.3104763 C57.56990441 240.21649355 56.66434686 241.1225108 55.73134817 242.05598312 C53.89183724 243.89645321 52.05233306 245.73693003 50.21283554 247.57741352 C33.4525055 264.34605586 16.68372161 281.10621659 -0.0886208 297.86284207 C-15.40285875 313.16283856 -30.70931587 328.47057844 -46.00926208 343.78486633 C-63.19856552 360.99022857 -80.39272359 378.19070969 -97.59466797 395.38343543 C-99.42780398 397.21561576 -101.2609337 399.04780238 -103.09405708 400.87999535 C-104.4470279 402.23227193 -104.4470279 402.23227193 -105.82733146 403.61186722 C-112.19124344 409.97318606 -118.55166165 416.33798539 -124.91074944 422.70412636 C-132.65609123 430.45786986 -140.4067306 438.20627019 -148.16427308 445.94780777 C-152.12405313 449.89968793 -156.08136771 453.85395745 -160.03225136 457.81473351 C-163.64597963 461.43737322 -167.26650954 465.05306433 -170.89268947 468.66323896 C-172.20617051 469.97335719 -173.51710504 471.28603422 -174.8252769 472.60145376 C-176.59846409 474.38371267 -178.38056011 476.15655383 -180.16525936 477.92727375 C-180.67560186 478.44463975 -181.18594436 478.96200575 -181.71175179 479.49504951 C-186.43603352 484.14524668 -190.21536781 485.50823707 -196.75204468 485.52139282 C-197.92822861 485.52847763 -199.10441254 485.53556244 -200.3162384 485.54286194 C-201.59793915 485.54038452 -202.87963989 485.5379071 -204.20018005 485.53535461 C-205.57047808 485.53970422 -206.94077368 485.5448882 -208.31106567 485.55084229 C-212.02595749 485.56421659 -215.74074748 485.56481273 -219.45565867 485.56227899 C-222.5595273 485.56120825 -225.66337541 485.56609525 -228.76723963 485.57088441 C-236.09093074 485.58197408 -243.41457055 485.58241998 -250.73826599 485.57637024 C-258.28810648 485.5703295 -265.83776066 485.58264517 -273.38756937 485.60394031 C-279.87519579 485.6215651 -286.36276295 485.6275563 -292.85041243 485.62430257 C-296.72273391 485.62249102 -300.59492246 485.62511298 -304.46722221 485.63901711 C-308.10918772 485.65160527 -311.75086305 485.64964223 -315.39282417 485.63660622 C-317.36210514 485.63311843 -319.331395 485.64441103 -321.30064392 485.65617371 C-323.06914955 485.64565224 -323.06914955 485.64565224 -324.87338257 485.63491821 C-325.89376586 485.63508595 -326.91414915 485.6352537 -327.96545315 485.63542652 C-332.35392428 485.07045496 -335.56490454 483.5487741 -338.72571373 480.44394302 C-340.22233351 477.60386168 -340.26484038 475.53662988 -340.28407288 472.32875061 C-340.29831299 471.11476089 -340.3125531 469.90077118 -340.32722473 468.6499939 C-340.32777099 467.30766306 -340.32797305 465.96533204 -340.3278656 464.6230011 C-340.33848154 463.2068286 -340.35031212 461.79066476 -340.36326599 460.37451172 C-340.39403997 456.52926755 -340.40518729 452.68420949 -340.41090822 448.83885479 C-340.41526418 446.43464994 -340.42364037 444.03049321 -340.43340683 441.62630463 C-340.46715457 433.23341406 -340.48428801 424.84066409 -340.48704529 416.44770813 C-340.49007793 408.6335229 -340.5304957 400.82013005 -340.58819354 393.0061748 C-340.63602606 386.29091979 -340.65677741 379.57592579 -340.65683591 372.86050153 C-340.65737324 368.85257907 -340.66888915 364.84543219 -340.70801163 360.83768463 C-340.74396728 357.06486872 -340.7461055 353.29349457 -340.72283936 349.52059364 C-340.71998737 348.14034739 -340.72897024 346.76001502 -340.75101852 345.37994194 C-340.7793707 343.4870277 -340.75973933 341.59358051 -340.73817444 339.70057678 C-340.74073053 338.64386654 -340.74328663 337.5871563 -340.74592018 336.49842453 C-339.42107407 331.56635735 -336.41120696 328.8494143 -332.87620544 325.26069641 C-331.96380891 324.32388535 -331.05141238 323.38707428 -330.11136746 322.421875 C-326.69904917 318.93931387 -323.24888248 315.49508099 -319.79901123 312.04978943 C-318.46330074 310.71220888 -317.1278061 309.37441276 -315.79250783 308.0364207 C-312.13558471 304.37339796 -308.47556099 300.71348728 -304.8149966 297.05410385 C-300.86298825 293.10229996 -296.91384559 289.14763402 -292.96430969 285.19335938 C-285.23307617 277.45383033 -277.49907617 269.71707157 -269.76397292 261.98141022 C-263.4796128 255.69657471 -257.19604358 249.41094957 -250.91303062 243.1247673 C-235.9990796 228.20344624 -221.08452153 213.28273299 -206.16662312 198.36535835 C-205.69002224 197.88877305 -205.21342136 197.41218775 -204.72237803 196.92116047 C-202.30686615 194.5057317 -199.8913463 192.09031089 -197.47582469 189.67489184 C-196.99610635 189.19519345 -196.516388 188.71549505 -196.02213274 188.22126033 C-195.05202891 187.25119694 -194.08192441 186.28113424 -193.11181922 185.31107221 C-178.00211829 170.2019847 -162.89649032 155.08883544 -147.79393005 139.97261047 C-130.82162553 122.98495578 -113.8459522 106.00067831 -96.8655116 89.02115524 C-87.87579321 80.03176931 -78.88763181 71.04083904 -69.90345192 62.04591751 C-62.25968233 54.39306735 -54.61249146 46.74365685 -46.96077601 39.09875102 C-43.0550062 35.19625796 -39.15089065 31.29214598 -35.25107765 27.38369942 C-31.68472528 23.80953262 -28.1138332 20.23996918 -24.53918948 16.67409538 C-23.24350816 15.37996019 -21.94953195 14.08411524 -20.65739516 12.78644098 C-18.90723792 11.02927814 -17.15109312 9.27832954 -15.39325428 7.52885628 C-14.63471239 6.76286212 -14.63471239 6.76286212 -13.86084643 5.98139334 C-9.28732009 1.45407808 -6.40418603 0.01258865 0 0 Z " fill="#EC6623" transform="translate(339.87620544433594,626.7393035888672)"/>
<path d="M0 0 C1.17473877 -0.00852997 2.34947754 -0.01705994 3.55981445 -0.02584839 C5.480009 -0.02448883 5.480009 -0.02448883 7.43899536 -0.02310181 C8.80767177 -0.02908951 10.17634481 -0.03589562 11.54501343 -0.04345703 C15.25583094 -0.06109922 18.96655616 -0.06581164 22.67741156 -0.0670886 C24.99767989 -0.06851172 27.31792488 -0.07278434 29.63818741 -0.07808304 C37.73814632 -0.09657709 45.83803947 -0.10475439 53.9380188 -0.10317993 C61.4799337 -0.10197854 69.02156242 -0.12308177 76.56340492 -0.15466726 C83.04595306 -0.18084574 89.52840781 -0.19154658 96.01100838 -0.19026911 C99.87950021 -0.18975996 103.74773759 -0.19541717 107.61617661 -0.21662521 C111.25574426 -0.23603449 114.89481545 -0.23611421 118.53440094 -0.22159195 C120.4999279 -0.21851461 122.46545506 -0.23516131 124.4309082 -0.25247192 C125.61128662 -0.24408295 126.79166504 -0.23569397 128.0078125 -0.22705078 C129.53700475 -0.22868508 129.53700475 -0.22868508 131.09708977 -0.2303524 C137.74234771 0.85998403 142.48247459 5.17745689 147.07510757 9.8341198 C147.63269552 10.38734742 148.19028346 10.94057504 148.764768 11.51056713 C150.6265703 13.36144344 152.47753289 15.22278575 154.32870483 17.08428955 C155.6766592 18.42878633 157.02526668 19.77262857 158.37446952 21.1158725 C162.0765504 24.80542791 165.76921395 28.50428448 169.46038675 32.20474839 C173.44407397 36.19521929 177.4363785 40.17705281 181.42758179 44.16000366 C189.24327923 51.96235471 197.05083648 59.77280272 204.85551479 67.58617459 C211.19754681 73.93497868 217.54249717 80.2808523 223.88954926 86.6246376 C224.79250242 87.52713107 225.69545559 88.42962454 226.62577097 89.35946629 C228.46003833 91.19277449 230.29431242 93.02607594 232.12859318 94.85937072 C248.84120588 111.56367096 265.54533617 128.27642462 282.24593176 144.99273709 C297.49223294 160.25327735 312.74627405 175.50604012 328.00686646 190.75228882 C345.1532764 207.88263637 362.29480042 225.01784314 379.42857337 242.16083252 C381.25487381 243.98808863 383.08118053 245.81533846 384.90749359 247.64258194 C385.80610649 248.54165766 386.70471939 249.44073339 387.63056298 250.36705383 C393.96887014 256.70795322 400.31065592 263.04536068 406.65378571 269.38143539 C414.38115225 277.10039618 422.10316725 284.82466276 429.81833008 292.555822 C433.75615989 296.50154655 437.69636944 300.44481504 441.64309692 304.38164139 C445.25407504 307.98369734 448.85808472 311.59257444 452.45660135 315.20707847 C453.76135609 316.51519148 455.06866009 317.82076761 456.37871888 319.12356864 C458.15615539 320.89190955 459.92413877 322.66919622 461.69003677 324.449049 C462.20317141 324.95516014 462.71630605 325.46127128 463.24499023 325.98271912 C468.08425934 330.89895211 470.50206343 335.34287366 470.51856995 342.25679016 C470.5334269 344.02096031 470.5334269 344.02096031 470.54858398 345.82077026 C470.54408234 347.09730469 470.53958069 348.37383911 470.53494263 349.6890564 C470.54064989 351.05788224 470.54761553 352.42670333 470.55574036 353.79551697 C470.57364788 357.50219396 470.57250798 361.20863392 470.56679797 364.91534114 C470.56370259 368.01420397 470.56980246 371.1130215 470.57583672 374.21187788 C470.58987245 381.52462172 470.58832864 388.83724872 470.57693481 396.1499939 C470.56545451 403.68455995 470.57952974 411.21877002 470.60633129 418.75328916 C470.62850973 425.231623 470.63512086 431.70984527 470.62925488 438.18821436 C470.62588919 442.05332215 470.62827428 445.91820178 470.64550591 449.78327751 C470.66100738 453.41877722 470.6569847 457.0537508 470.63820076 460.68922997 C470.63277588 462.65234579 470.64700464 464.61548541 470.66189575 466.57855225 C470.60582028 473.30097685 470.40024111 477.92158273 466.13088989 483.26742554 C462.85180218 485.40545273 460.11760271 485.5320684 456.25036621 485.5684967 C455.04768097 485.58425247 453.84499573 485.60000824 452.60586548 485.61624146 C451.28945068 485.62319031 449.97303589 485.63013916 448.61672974 485.63729858 C447.21365623 485.65147205 445.81059007 485.66638837 444.40753174 485.68199158 C439.80235922 485.72917202 435.1971687 485.75491709 430.59182739 485.77914429 C429.00340349 485.78855541 427.41498007 485.79804989 425.82655716 485.80762672 C419.21595675 485.84611561 412.60536897 485.8793249 405.9946804 485.89799786 C396.53746665 485.92478022 387.08162415 485.98226916 377.6249069 486.08376282 C370.96654623 486.15276579 364.30854885 486.18697786 357.64983904 486.19556266 C353.67734047 486.20155028 349.70625349 486.22232941 345.7341423 486.28012657 C341.99229805 486.33374981 338.25274094 486.34394266 334.51060104 486.32198143 C332.49655194 486.3209315 330.48262998 486.36432081 328.46908569 486.40942383 C326.63967941 486.38653038 326.63967941 486.38653038 324.77331543 486.36317444 C323.72582312 486.36887294 322.6783308 486.37457144 321.5990963 486.38044262 C315.89917264 484.55122265 312.33141675 480.41415013 308.13088989 476.26742554 C307.12453714 475.28509542 306.11803787 474.30291538 305.11140656 473.3208707 C301.61998194 469.89641742 298.16549919 466.43556781 294.71070862 462.97422791 C293.3748158 461.6394891 292.03870536 460.30496807 290.70239788 458.97064441 C287.05337157 455.32577238 283.40744593 451.67781284 279.76205003 448.02931035 C275.8219089 444.08689956 271.87888263 440.14737612 267.93623352 436.20747375 C260.22414167 428.49982086 252.51474629 420.78947638 244.80632507 413.07815266 C238.54458378 406.81415129 232.28186506 400.55112872 226.01844978 394.28880119 C225.12642709 393.39693173 224.23440439 392.50506226 223.3153507 391.58616645 C221.50322001 389.77435549 219.69108707 387.96254676 217.87895191 386.15074026 C201.3865428 369.66109893 184.8969525 353.16864165 168.40854928 336.67499503 C153.35156989 321.6132639 138.29199839 306.55412909 123.23025513 291.49716187 C106.30052133 274.57277854 89.37240812 257.64677726 72.4468866 240.71818107 C70.64425587 238.91523179 68.84162305 237.1122846 67.03898811 235.30933952 C65.70855874 233.97867873 65.70855874 233.97867873 64.351252 232.62113591 C58.08977611 226.35879524 51.82713781 220.09761847 45.56405449 213.83688545 C37.94161861 206.21724719 30.32095279 198.59584403 22.70258652 190.97213674 C18.81311455 187.0800282 14.92283168 183.18873917 11.03039551 179.29959488 C7.47269852 175.74486136 3.91728867 172.18785734 0.3637476 168.62896942 C-0.92714731 167.33695063 -2.21889998 166.04578821 -3.5115611 164.7555365 C-5.25840931 163.01169667 -7.00219745 161.26485502 -8.74520206 159.51717472 C-9.25631581 159.00840214 -9.76742955 158.49962957 -10.29403159 157.97543964 C-14.27842719 153.96941778 -14.99365892 152.1720322 -15.01628113 146.55580139 C-15.02343643 145.34022552 -15.03059174 144.12464966 -15.03796387 142.87223816 C-15.04080425 141.51788356 -15.04351596 140.16352868 -15.04611206 138.80917358 C-15.05237582 137.38843621 -15.05902255 135.96770048 -15.06602478 134.54696655 C-15.08344222 130.68117578 -15.09398851 126.81539739 -15.10223031 122.94957709 C-15.10737879 120.5350401 -15.11345458 118.12050695 -15.11974144 115.70597267 C-15.13879542 108.15344804 -15.15302623 100.60093319 -15.16135341 93.04838914 C-15.17112829 84.32649657 -15.19745331 75.60485762 -15.2378543 66.88305444 C-15.26800039 60.14413603 -15.28282083 53.40529038 -15.28613442 46.66630584 C-15.2884866 42.64020755 -15.29746847 38.61438015 -15.3225956 34.58835411 C-15.34585531 30.80029931 -15.35011831 27.01269415 -15.33983421 23.22458649 C-15.33933823 21.83503284 -15.34567733 20.44545722 -15.35939026 19.05597115 C-15.37707751 17.1573965 -15.367628 15.25862709 -15.3568573 13.36000061 C-15.36043983 11.76689072 -15.36043983 11.76689072 -15.36409473 10.14159679 C-14.73177296 6.46996544 -13.51114118 4.86569119 -10.86911011 2.26742554 C-7.21760687 0.28202569 -4.11759491 0.01354746 0 0 Z " fill="#F6A500" transform="translate(14.869110107421875,8.732574462890625)"/>
</svg>
